# xmcd
#
# Track frame offsets: 
#        150
#        11573
#        23629
#
# Disc length: 532 seconds
#
# Revision: 1
# Processed by: cddbd v1.5.2PL0 Copyright (c) Steve Scherf et al.
# Submitted via: ExactAudioCopy v1.0b3
#
DISCID=15021203
DTITLE=Anna Netrebko - Anna Netrebko - Klassik
DYEAR=2005
DGENRE=Classic
TTITLE0=W.A. Mozart - Deh Vieni, non tardar, o gioia bella
TTITLE1=Puccini - Quando men vo
TTITLE2=Verdi - Sempre libre
EXTD=
EXTT0=
EXTT1=
EXTT2=
PLAYORDER=
